<mxfile host="app.diagrams.net" modified="2021-04-13T06:08:05.195Z" agent="5.0 (Windows NT 10.0; Win64; x64) AppleWebKit/537.36 (KHTML, like Gecko) Chrome/89.0.4389.90 Safari/537.36" etag="rPcTYbXrKEZSCscf9ciL" version="14.5.8" type="github">
  <diagram name="Page-1" id="13e1069c-82ec-6db2-03f1-153e76fe0fe0">
    <mxGraphModel dx="1038" dy="524" grid="1" gridSize="10" guides="1" tooltips="1" connect="1" arrows="1" fold="1" page="1" pageScale="1" pageWidth="1100" pageHeight="850" background="#ffffff" math="0" shadow="0">
      <root>
        <mxCell id="0" />
        <mxCell id="1" parent="0" />
        <mxCell id="7baba1c4bc27f4b0-2" value="浏览器" style="shape=umlLifeline;perimeter=lifelinePerimeter;whiteSpace=wrap;html=1;container=1;collapsible=0;recursiveResize=0;outlineConnect=0;rounded=1;shadow=0;comic=0;labelBackgroundColor=none;strokeWidth=1;fontFamily=Verdana;fontSize=12;align=center;" parent="1" vertex="1">
          <mxGeometry x="150" y="80" width="100" height="1680" as="geometry" />
        </mxCell>
        <mxCell id="E0K9IzBjebCavO_bWUDb-6" value="" style="html=1;points=[];perimeter=orthogonalPerimeter;" vertex="1" parent="7baba1c4bc27f4b0-2">
          <mxGeometry x="45" y="80" width="10" height="760" as="geometry" />
        </mxCell>
        <mxCell id="E0K9IzBjebCavO_bWUDb-42" value="提交登录请求" style="html=1;verticalAlign=bottom;endArrow=block;" edge="1" parent="7baba1c4bc27f4b0-2">
          <mxGeometry width="80" relative="1" as="geometry">
            <mxPoint x="60" y="350" as="sourcePoint" />
            <mxPoint x="323" y="350" as="targetPoint" />
          </mxGeometry>
        </mxCell>
        <mxCell id="E0K9IzBjebCavO_bWUDb-55" value="请求：&lt;span style=&quot;font-size: 12px ; background-color: rgb(248 , 249 , 250)&quot;&gt;http://app1.xx.com&lt;/span&gt;" style="html=1;verticalAlign=bottom;endArrow=block;" edge="1" parent="7baba1c4bc27f4b0-2">
          <mxGeometry width="80" relative="1" as="geometry">
            <mxPoint x="60" y="740" as="sourcePoint" />
            <mxPoint x="560" y="740" as="targetPoint" />
          </mxGeometry>
        </mxCell>
        <mxCell id="E0K9IzBjebCavO_bWUDb-61" value="" style="html=1;points=[];perimeter=orthogonalPerimeter;" vertex="1" parent="7baba1c4bc27f4b0-2">
          <mxGeometry x="45" y="950" width="10" height="680" as="geometry" />
        </mxCell>
        <mxCell id="E0K9IzBjebCavO_bWUDb-74" value="请求：&lt;span style=&quot;font-size: 12px ; background-color: rgb(248 , 249 , 250)&quot;&gt;http://app2.xx.com?ticket=TSxxx&lt;/span&gt;" style="html=1;verticalAlign=bottom;endArrow=block;" edge="1" parent="7baba1c4bc27f4b0-2">
          <mxGeometry width="80" relative="1" as="geometry">
            <mxPoint x="60" y="1190" as="sourcePoint" />
            <mxPoint x="790" y="1190" as="targetPoint" />
          </mxGeometry>
        </mxCell>
        <mxCell id="E0K9IzBjebCavO_bWUDb-81" value="&lt;span style=&quot;font-size: 12px ; background-color: rgb(248 , 249 , 250)&quot;&gt;http://app2.xx.com&lt;/span&gt;" style="html=1;verticalAlign=bottom;endArrow=block;entryX=-0.38;entryY=0.703;entryDx=0;entryDy=0;entryPerimeter=0;" edge="1" parent="7baba1c4bc27f4b0-2" target="E0K9IzBjebCavO_bWUDb-73">
          <mxGeometry width="80" relative="1" as="geometry">
            <mxPoint x="60" y="1490" as="sourcePoint" />
            <mxPoint x="140" y="1490" as="targetPoint" />
          </mxGeometry>
        </mxCell>
        <mxCell id="7baba1c4bc27f4b0-3" value="单点登录认证系统" style="shape=umlLifeline;perimeter=lifelinePerimeter;whiteSpace=wrap;html=1;container=1;collapsible=0;recursiveResize=0;outlineConnect=0;rounded=1;shadow=0;comic=0;labelBackgroundColor=none;strokeWidth=1;fontFamily=Verdana;fontSize=12;align=center;" parent="1" vertex="1">
          <mxGeometry x="430" y="80" width="100" height="1680" as="geometry" />
        </mxCell>
        <mxCell id="E0K9IzBjebCavO_bWUDb-28" value="" style="html=1;points=[];perimeter=orthogonalPerimeter;" vertex="1" parent="7baba1c4bc27f4b0-3">
          <mxGeometry x="45" y="190" width="10" height="80" as="geometry" />
        </mxCell>
        <mxCell id="E0K9IzBjebCavO_bWUDb-45" value="" style="html=1;points=[];perimeter=orthogonalPerimeter;" vertex="1" parent="7baba1c4bc27f4b0-3">
          <mxGeometry x="45" y="310" width="10" height="110" as="geometry" />
        </mxCell>
        <mxCell id="E0K9IzBjebCavO_bWUDb-46" value="认证登录信息" style="edgeStyle=orthogonalEdgeStyle;html=1;align=left;spacingLeft=2;endArrow=block;rounded=0;exitX=1.1;exitY=0.088;exitDx=0;exitDy=0;exitPerimeter=0;" edge="1" parent="7baba1c4bc27f4b0-3" source="E0K9IzBjebCavO_bWUDb-45">
          <mxGeometry relative="1" as="geometry">
            <mxPoint x="45" y="330" as="sourcePoint" />
            <Array as="points">
              <mxPoint x="110" y="317" />
              <mxPoint x="110" y="370" />
            </Array>
            <mxPoint x="56" y="370" as="targetPoint" />
          </mxGeometry>
        </mxCell>
        <mxCell id="7baba1c4bc27f4b0-4" value="APP1" style="shape=umlLifeline;perimeter=lifelinePerimeter;whiteSpace=wrap;html=1;container=1;collapsible=0;recursiveResize=0;outlineConnect=0;rounded=1;shadow=0;comic=0;labelBackgroundColor=none;strokeWidth=1;fontFamily=Verdana;fontSize=12;align=center;" parent="1" vertex="1">
          <mxGeometry x="670" y="80" width="100" height="1680" as="geometry" />
        </mxCell>
        <mxCell id="E0K9IzBjebCavO_bWUDb-11" value="" style="html=1;points=[];perimeter=orthogonalPerimeter;" vertex="1" parent="7baba1c4bc27f4b0-4">
          <mxGeometry x="45" y="80" width="10" height="100" as="geometry" />
        </mxCell>
        <mxCell id="E0K9IzBjebCavO_bWUDb-13" value="用户未登录APP1" style="text;html=1;strokeColor=none;fillColor=none;align=center;verticalAlign=middle;whiteSpace=wrap;rounded=0;" vertex="1" parent="7baba1c4bc27f4b0-4">
          <mxGeometry x="60" y="85" width="40" height="20" as="geometry" />
        </mxCell>
        <mxCell id="E0K9IzBjebCavO_bWUDb-48" value="" style="html=1;points=[];perimeter=orthogonalPerimeter;" vertex="1" parent="7baba1c4bc27f4b0-4">
          <mxGeometry x="45" y="470" width="10" height="370" as="geometry" />
        </mxCell>
        <mxCell id="E0K9IzBjebCavO_bWUDb-69" value="" style="html=1;points=[];perimeter=orthogonalPerimeter;" vertex="1" parent="7baba1c4bc27f4b0-4">
          <mxGeometry x="45" y="1060" width="10" height="80" as="geometry" />
        </mxCell>
        <mxCell id="E0K9IzBjebCavO_bWUDb-78" value="" style="html=1;points=[];perimeter=orthogonalPerimeter;" vertex="1" parent="7baba1c4bc27f4b0-4">
          <mxGeometry x="45" y="1300" width="10" height="90" as="geometry" />
        </mxCell>
        <mxCell id="E0K9IzBjebCavO_bWUDb-79" value="返回XML" style="html=1;verticalAlign=bottom;endArrow=open;dashed=1;endSize=8;exitX=1.26;exitY=0.738;exitDx=0;exitDy=0;exitPerimeter=0;" edge="1" parent="7baba1c4bc27f4b0-4" source="E0K9IzBjebCavO_bWUDb-78">
          <mxGeometry relative="1" as="geometry">
            <mxPoint x="270" y="1367" as="targetPoint" />
          </mxGeometry>
        </mxCell>
        <mxCell id="7baba1c4bc27f4b0-5" value="APP2" style="shape=umlLifeline;perimeter=lifelinePerimeter;whiteSpace=wrap;html=1;container=1;collapsible=0;recursiveResize=0;outlineConnect=0;rounded=1;shadow=0;comic=0;labelBackgroundColor=none;strokeWidth=1;fontFamily=Verdana;fontSize=12;align=center;" parent="1" vertex="1">
          <mxGeometry x="900" y="80" width="100" height="1680" as="geometry" />
        </mxCell>
        <mxCell id="E0K9IzBjebCavO_bWUDb-66" value="" style="html=1;points=[];perimeter=orthogonalPerimeter;" vertex="1" parent="7baba1c4bc27f4b0-5">
          <mxGeometry x="45" y="970" width="10" height="40" as="geometry" />
        </mxCell>
        <mxCell id="E0K9IzBjebCavO_bWUDb-73" value="" style="html=1;points=[];perimeter=orthogonalPerimeter;" vertex="1" parent="7baba1c4bc27f4b0-5">
          <mxGeometry x="45" y="1180" width="10" height="440" as="geometry" />
        </mxCell>
        <mxCell id="E0K9IzBjebCavO_bWUDb-3" value="" style="shape=umlLifeline;participant=umlActor;perimeter=lifelinePerimeter;whiteSpace=wrap;html=1;container=1;collapsible=0;recursiveResize=0;verticalAlign=top;spacingTop=36;outlineConnect=0;" vertex="1" parent="1">
          <mxGeometry x="70" y="80" width="20" height="1680" as="geometry" />
        </mxCell>
        <mxCell id="E0K9IzBjebCavO_bWUDb-4" value="" style="html=1;points=[];perimeter=orthogonalPerimeter;" vertex="1" parent="E0K9IzBjebCavO_bWUDb-3">
          <mxGeometry x="5" y="90" width="10" height="50" as="geometry" />
        </mxCell>
        <mxCell id="E0K9IzBjebCavO_bWUDb-33" value="" style="html=1;points=[];perimeter=orthogonalPerimeter;" vertex="1" parent="E0K9IzBjebCavO_bWUDb-3">
          <mxGeometry x="5" y="270" width="10" height="80" as="geometry" />
        </mxCell>
        <mxCell id="E0K9IzBjebCavO_bWUDb-60" value="" style="html=1;points=[];perimeter=orthogonalPerimeter;" vertex="1" parent="E0K9IzBjebCavO_bWUDb-3">
          <mxGeometry x="5" y="940" width="10" height="80" as="geometry" />
        </mxCell>
        <mxCell id="E0K9IzBjebCavO_bWUDb-5" value="访问APP1" style="html=1;verticalAlign=bottom;endArrow=block;" edge="1" parent="1" target="E0K9IzBjebCavO_bWUDb-6">
          <mxGeometry width="80" relative="1" as="geometry">
            <mxPoint x="90" y="180" as="sourcePoint" />
            <mxPoint x="292" y="170" as="targetPoint" />
          </mxGeometry>
        </mxCell>
        <mxCell id="E0K9IzBjebCavO_bWUDb-16" value="&lt;font style=&quot;font-size: 11px ; line-height: 90%&quot; color=&quot;#cc0000&quot;&gt;1、重定向：&amp;nbsp; https://server.sso.com/login?&lt;br&gt;service=http%3A%2F%2Fapp1.xx.com&lt;/font&gt;" style="html=1;verticalAlign=bottom;endArrow=open;dashed=1;endSize=8;" edge="1" parent="1">
          <mxGeometry x="0.08" relative="1" as="geometry">
            <mxPoint x="710" y="220" as="sourcePoint" />
            <mxPoint x="210" y="220" as="targetPoint" />
            <mxPoint as="offset" />
          </mxGeometry>
        </mxCell>
        <mxCell id="E0K9IzBjebCavO_bWUDb-17" value="https://server.sso.com" style="whiteSpace=wrap;html=1;rounded=1;arcSize=50;align=center;verticalAlign=middle;strokeWidth=1;autosize=1;spacing=4;treeFolding=1;treeMoving=1;newEdgeStyle={&quot;edgeStyle&quot;:&quot;entityRelationEdgeStyle&quot;,&quot;startArrow&quot;:&quot;none&quot;,&quot;endArrow&quot;:&quot;none&quot;,&quot;segment&quot;:10,&quot;curved&quot;:1};" vertex="1" parent="1">
          <mxGeometry x="400" y="18" width="160" height="30" as="geometry" />
        </mxCell>
        <mxCell id="E0K9IzBjebCavO_bWUDb-18" value="" style="edgeStyle=entityRelationEdgeStyle;startArrow=none;endArrow=none;segment=10;curved=1;exitX=0.47;exitY=0;exitDx=0;exitDy=0;exitPerimeter=0;" edge="1" target="E0K9IzBjebCavO_bWUDb-17" parent="1" source="7baba1c4bc27f4b0-3">
          <mxGeometry relative="1" as="geometry">
            <mxPoint x="490" y="78" as="sourcePoint" />
          </mxGeometry>
        </mxCell>
        <mxCell id="E0K9IzBjebCavO_bWUDb-24" value="http://app1.xx.com" style="whiteSpace=wrap;html=1;rounded=1;arcSize=50;align=center;verticalAlign=middle;strokeWidth=1;autosize=1;spacing=4;treeFolding=1;treeMoving=1;newEdgeStyle={&quot;edgeStyle&quot;:&quot;entityRelationEdgeStyle&quot;,&quot;startArrow&quot;:&quot;none&quot;,&quot;endArrow&quot;:&quot;none&quot;,&quot;segment&quot;:10,&quot;curved&quot;:1};" vertex="1" parent="1">
          <mxGeometry x="650" y="18" width="140" height="30" as="geometry" />
        </mxCell>
        <mxCell id="E0K9IzBjebCavO_bWUDb-25" value="" style="edgeStyle=entityRelationEdgeStyle;startArrow=none;endArrow=none;segment=10;curved=1;exitX=0.5;exitY=0;exitDx=0;exitDy=0;exitPerimeter=0;" edge="1" target="E0K9IzBjebCavO_bWUDb-24" parent="1" source="7baba1c4bc27f4b0-4">
          <mxGeometry relative="1" as="geometry">
            <mxPoint x="626" y="80" as="sourcePoint" />
          </mxGeometry>
        </mxCell>
        <mxCell id="E0K9IzBjebCavO_bWUDb-26" value="http://app2.xx.com" style="whiteSpace=wrap;html=1;rounded=1;arcSize=50;align=center;verticalAlign=middle;strokeWidth=1;autosize=1;spacing=4;treeFolding=1;treeMoving=1;newEdgeStyle={&quot;edgeStyle&quot;:&quot;entityRelationEdgeStyle&quot;,&quot;startArrow&quot;:&quot;none&quot;,&quot;endArrow&quot;:&quot;none&quot;,&quot;segment&quot;:10,&quot;curved&quot;:1};" vertex="1" parent="1">
          <mxGeometry x="890" y="18" width="140" height="30" as="geometry" />
        </mxCell>
        <mxCell id="E0K9IzBjebCavO_bWUDb-27" value="" style="edgeStyle=entityRelationEdgeStyle;startArrow=none;endArrow=none;segment=10;curved=1;exitX=0.5;exitY=0;exitDx=0;exitDy=0;exitPerimeter=0;" edge="1" parent="1" target="E0K9IzBjebCavO_bWUDb-26" source="7baba1c4bc27f4b0-5">
          <mxGeometry relative="1" as="geometry">
            <mxPoint x="860" y="80" as="sourcePoint" />
          </mxGeometry>
        </mxCell>
        <mxCell id="E0K9IzBjebCavO_bWUDb-12" value="访问APP1" style="html=1;verticalAlign=bottom;endArrow=block;entryX=0.06;entryY=0.206;entryDx=0;entryDy=0;entryPerimeter=0;" edge="1" parent="1" target="E0K9IzBjebCavO_bWUDb-11">
          <mxGeometry width="80" relative="1" as="geometry">
            <mxPoint x="210" y="181" as="sourcePoint" />
            <mxPoint x="630" y="180" as="targetPoint" />
          </mxGeometry>
        </mxCell>
        <mxCell id="E0K9IzBjebCavO_bWUDb-31" value="请求 https://server.sso.com/login?&lt;br&gt;service=http%3A%2F%2Fapp1.xx.com" style="html=1;verticalAlign=bottom;endArrow=block;entryX=-0.18;entryY=0.133;entryDx=0;entryDy=0;entryPerimeter=0;" edge="1" parent="1" target="E0K9IzBjebCavO_bWUDb-28">
          <mxGeometry width="80" relative="1" as="geometry">
            <mxPoint x="210" y="281" as="sourcePoint" />
            <mxPoint x="300" y="260" as="targetPoint" />
          </mxGeometry>
        </mxCell>
        <mxCell id="E0K9IzBjebCavO_bWUDb-32" value="返回登录页面" style="html=1;verticalAlign=bottom;endArrow=open;dashed=1;endSize=8;" edge="1" parent="1">
          <mxGeometry relative="1" as="geometry">
            <mxPoint x="469" y="320" as="sourcePoint" />
            <mxPoint x="210" y="320" as="targetPoint" />
          </mxGeometry>
        </mxCell>
        <mxCell id="E0K9IzBjebCavO_bWUDb-35" value="登录表单" style="html=1;verticalAlign=bottom;endArrow=open;dashed=1;endSize=8;" edge="1" parent="1">
          <mxGeometry relative="1" as="geometry">
            <mxPoint x="190" y="360" as="sourcePoint" />
            <mxPoint x="90" y="360" as="targetPoint" />
          </mxGeometry>
        </mxCell>
        <mxCell id="E0K9IzBjebCavO_bWUDb-36" value="提交登录表单" style="html=1;verticalAlign=bottom;endArrow=block;" edge="1" parent="1">
          <mxGeometry width="80" relative="1" as="geometry">
            <mxPoint x="90" y="410" as="sourcePoint" />
            <mxPoint x="192" y="410" as="targetPoint" />
          </mxGeometry>
        </mxCell>
        <mxCell id="E0K9IzBjebCavO_bWUDb-47" value="set-cookie&lt;br&gt;重定向：&lt;span style=&quot;font-size: 12px ; background-color: rgb(248 , 249 , 250)&quot;&gt;http://app1.xx.com?ticket=TSxxx&lt;/span&gt;&amp;nbsp;" style="html=1;verticalAlign=bottom;endArrow=open;dashed=1;endSize=8;" edge="1" parent="1">
          <mxGeometry relative="1" as="geometry">
            <mxPoint x="470" y="480" as="sourcePoint" />
            <mxPoint x="210" y="480" as="targetPoint" />
          </mxGeometry>
        </mxCell>
        <mxCell id="E0K9IzBjebCavO_bWUDb-49" value="请求：&lt;span style=&quot;font-size: 12px ; background-color: rgb(248 , 249 , 250)&quot;&gt;http://app1.xx.com?ticket=ST-xxx&lt;/span&gt;" style="html=1;verticalAlign=bottom;endArrow=block;" edge="1" parent="1">
          <mxGeometry relative="1" as="geometry">
            <mxPoint x="210" y="556" as="sourcePoint" />
            <mxPoint x="710" y="556" as="targetPoint" />
          </mxGeometry>
        </mxCell>
        <mxCell id="E0K9IzBjebCavO_bWUDb-52" value="&lt;font color=&quot;#cc0000&quot;&gt;2、请求：&lt;span style=&quot;font-size: 12px ; background-color: rgb(248 , 249 , 250)&quot;&gt;https://server.sso.com&lt;br&gt;&lt;/span&gt;/p3/serviceValidate&lt;br&gt;?ticket=ST-xxx&lt;br&gt;&amp;amp;service=&lt;br&gt;http%3A%2F%2Fapp1.xx.com&lt;/font&gt;" style="html=1;verticalAlign=bottom;endArrow=block;entryX=1.42;entryY=0.118;entryDx=0;entryDy=0;entryPerimeter=0;" edge="1" target="E0K9IzBjebCavO_bWUDb-51" parent="1">
          <mxGeometry relative="1" as="geometry">
            <mxPoint x="710" y="640" as="sourcePoint" />
          </mxGeometry>
        </mxCell>
        <mxCell id="E0K9IzBjebCavO_bWUDb-51" value="" style="html=1;points=[];perimeter=orthogonalPerimeter;" vertex="1" parent="1">
          <mxGeometry x="475" y="630" width="10" height="90" as="geometry" />
        </mxCell>
        <mxCell id="E0K9IzBjebCavO_bWUDb-53" value="返回XML" style="html=1;verticalAlign=bottom;endArrow=open;dashed=1;endSize=8;exitX=1.26;exitY=0.738;exitDx=0;exitDy=0;exitPerimeter=0;" edge="1" source="E0K9IzBjebCavO_bWUDb-51" parent="1">
          <mxGeometry relative="1" as="geometry">
            <mxPoint x="710" y="697" as="targetPoint" />
          </mxGeometry>
        </mxCell>
        <mxCell id="E0K9IzBjebCavO_bWUDb-54" value="set-cookie&lt;br&gt;&lt;span style=&quot;font-size: 12px ; background-color: rgb(248 , 249 , 250)&quot;&gt;重定向：http://app1.xx.com&lt;/span&gt;" style="html=1;verticalAlign=bottom;endArrow=open;dashed=1;endSize=8;" edge="1" parent="1">
          <mxGeometry relative="1" as="geometry">
            <mxPoint x="710" y="780" as="sourcePoint" />
            <mxPoint x="210" y="780" as="targetPoint" />
          </mxGeometry>
        </mxCell>
        <mxCell id="E0K9IzBjebCavO_bWUDb-57" value="&lt;span style=&quot;color: rgb(204 , 0 , 0)&quot;&gt;3、检查cookie有效性&lt;/span&gt;" style="edgeStyle=orthogonalEdgeStyle;html=1;align=left;spacingLeft=2;endArrow=block;rounded=0;" edge="1" parent="1">
          <mxGeometry relative="1" as="geometry">
            <mxPoint x="960" y="1610" as="sourcePoint" />
            <Array as="points">
              <mxPoint x="990" y="1610" />
              <mxPoint x="990" y="1640" />
            </Array>
            <mxPoint x="960" y="1640" as="targetPoint" />
          </mxGeometry>
        </mxCell>
        <mxCell id="E0K9IzBjebCavO_bWUDb-58" value="返回请求的内容" style="html=1;verticalAlign=bottom;endArrow=open;dashed=1;endSize=8;" edge="1" parent="1">
          <mxGeometry relative="1" as="geometry">
            <mxPoint x="710" y="900" as="sourcePoint" />
            <mxPoint x="210" y="900" as="targetPoint" />
          </mxGeometry>
        </mxCell>
        <mxCell id="E0K9IzBjebCavO_bWUDb-59" value="" style="line;strokeWidth=1;fillColor=#f8cecc;align=left;verticalAlign=middle;spacingTop=-1;spacingLeft=3;spacingRight=3;rotatable=0;labelPosition=right;points=[];portConstraint=eastwest;gradientDirection=west;perimeterSpacing=1;strokeColor=#CC0000;" vertex="1" parent="1">
          <mxGeometry y="950" width="1090" height="8" as="geometry" />
        </mxCell>
        <mxCell id="E0K9IzBjebCavO_bWUDb-63" value="&lt;b&gt;&lt;font style=&quot;font-size: 15px&quot;&gt;已经登录访问APP2&lt;/font&gt;&lt;/b&gt;" style="text;html=1;strokeColor=#b85450;fillColor=#f8cecc;align=center;verticalAlign=middle;whiteSpace=wrap;rounded=0;" vertex="1" parent="1">
          <mxGeometry x="20" y="978" width="150" height="20" as="geometry" />
        </mxCell>
        <mxCell id="E0K9IzBjebCavO_bWUDb-64" value="&lt;b&gt;&lt;font style=&quot;font-size: 15px&quot;&gt;未登录访问APP1&lt;/font&gt;&lt;/b&gt;" style="text;html=1;strokeColor=#b85450;fillColor=#f8cecc;align=center;verticalAlign=middle;whiteSpace=wrap;rounded=0;" vertex="1" parent="1">
          <mxGeometry x="30" y="140" width="150" height="20" as="geometry" />
        </mxCell>
        <mxCell id="E0K9IzBjebCavO_bWUDb-65" value="访问APP2" style="html=1;verticalAlign=bottom;endArrow=block;" edge="1" parent="1">
          <mxGeometry width="80" relative="1" as="geometry">
            <mxPoint x="90" y="1040" as="sourcePoint" />
            <mxPoint x="190" y="1040" as="targetPoint" />
          </mxGeometry>
        </mxCell>
        <mxCell id="E0K9IzBjebCavO_bWUDb-67" value="访问APP2" style="html=1;verticalAlign=bottom;endArrow=block;entryX=0;entryY=0;" edge="1" target="E0K9IzBjebCavO_bWUDb-66" parent="1" source="E0K9IzBjebCavO_bWUDb-61">
          <mxGeometry relative="1" as="geometry">
            <mxPoint x="875" y="1030" as="sourcePoint" />
          </mxGeometry>
        </mxCell>
        <mxCell id="E0K9IzBjebCavO_bWUDb-68" value="&lt;font color=&quot;#cc0000&quot;&gt;1、重定向：https://server.sso.com/login?service=http%3A%2F%2Fapp2.xx.com&lt;/font&gt;" style="html=1;verticalAlign=bottom;endArrow=open;dashed=1;endSize=8;exitX=0;exitY=0.95;" edge="1" source="E0K9IzBjebCavO_bWUDb-66" parent="1">
          <mxGeometry x="-0.0068" relative="1" as="geometry">
            <mxPoint x="210" y="1088" as="targetPoint" />
            <mxPoint as="offset" />
          </mxGeometry>
        </mxCell>
        <mxCell id="E0K9IzBjebCavO_bWUDb-70" value="请求：https://server.sso.com/login?service=http%3A%2F%2Fapp2.xx.com" style="html=1;verticalAlign=bottom;endArrow=block;entryX=0;entryY=0;" edge="1" target="E0K9IzBjebCavO_bWUDb-69" parent="1">
          <mxGeometry x="0.0297" relative="1" as="geometry">
            <mxPoint x="210" y="1140" as="sourcePoint" />
            <mxPoint as="offset" />
          </mxGeometry>
        </mxCell>
        <mxCell id="E0K9IzBjebCavO_bWUDb-72" value="认证：TGT" style="edgeStyle=orthogonalEdgeStyle;html=1;align=left;spacingLeft=2;endArrow=block;rounded=0;" edge="1" parent="1">
          <mxGeometry relative="1" as="geometry">
            <mxPoint x="730" y="1150" as="sourcePoint" />
            <Array as="points">
              <mxPoint x="760" y="1150" />
              <mxPoint x="760" y="1180" />
            </Array>
            <mxPoint x="730" y="1180" as="targetPoint" />
          </mxGeometry>
        </mxCell>
        <mxCell id="E0K9IzBjebCavO_bWUDb-71" value="重定向：&lt;span style=&quot;font-size: 12px ; background-color: rgb(248 , 249 , 250)&quot;&gt;http://app2.xx.com?ticket=TSxxx&lt;/span&gt;" style="html=1;verticalAlign=bottom;endArrow=open;dashed=1;endSize=8;exitX=0;exitY=0.95;" edge="1" source="E0K9IzBjebCavO_bWUDb-69" parent="1">
          <mxGeometry x="0.0495" relative="1" as="geometry">
            <mxPoint x="210" y="1216" as="targetPoint" />
            <mxPoint as="offset" />
          </mxGeometry>
        </mxCell>
        <mxCell id="E0K9IzBjebCavO_bWUDb-77" value="&lt;font color=&quot;#cc0000&quot;&gt;2、请求：&lt;span style=&quot;font-size: 12px ; background-color: rgb(248 , 249 , 250)&quot;&gt;https://server.sso.com&lt;br&gt;&lt;/span&gt;/p3/serviceValidate&lt;br&gt;?ticket=ST-xxx&lt;br&gt;&amp;amp;service=&lt;br&gt;http%3A%2F%2Fapp2.xx.com&lt;/font&gt;" style="html=1;verticalAlign=bottom;endArrow=block;entryX=1.42;entryY=0.118;entryDx=0;entryDy=0;entryPerimeter=0;" edge="1" parent="1" target="E0K9IzBjebCavO_bWUDb-78">
          <mxGeometry relative="1" as="geometry">
            <mxPoint x="941" y="1391" as="sourcePoint" />
          </mxGeometry>
        </mxCell>
        <mxCell id="E0K9IzBjebCavO_bWUDb-80" value="set-cookie&lt;br&gt;&lt;span style=&quot;font-size: 12px ; background-color: rgb(248 , 249 , 250)&quot;&gt;重定向：http://app2.xx.com&lt;/span&gt;" style="html=1;verticalAlign=bottom;endArrow=open;dashed=1;endSize=8;" edge="1" parent="1">
          <mxGeometry x="-0.0685" relative="1" as="geometry">
            <mxPoint x="940" y="1520" as="sourcePoint" />
            <mxPoint x="210" y="1520" as="targetPoint" />
            <mxPoint as="offset" />
          </mxGeometry>
        </mxCell>
        <mxCell id="E0K9IzBjebCavO_bWUDb-82" value="&lt;font color=&quot;#cc0000&quot;&gt;3、检查cookie有效性&lt;/font&gt;" style="edgeStyle=orthogonalEdgeStyle;html=1;align=left;spacingLeft=2;endArrow=block;rounded=0;" edge="1" parent="1">
          <mxGeometry relative="1" as="geometry">
            <mxPoint x="731" y="850" as="sourcePoint" />
            <Array as="points">
              <mxPoint x="761" y="850" />
              <mxPoint x="761" y="880" />
            </Array>
            <mxPoint x="731" y="880" as="targetPoint" />
          </mxGeometry>
        </mxCell>
        <mxCell id="E0K9IzBjebCavO_bWUDb-83" value="返回请求的内容" style="html=1;verticalAlign=bottom;endArrow=open;dashed=1;endSize=8;" edge="1" parent="1">
          <mxGeometry relative="1" as="geometry">
            <mxPoint x="940" y="1680" as="sourcePoint" />
            <mxPoint x="210" y="1680" as="targetPoint" />
          </mxGeometry>
        </mxCell>
      </root>
    </mxGraphModel>
  </diagram>
</mxfile>
